<svg version="1.1" xmlns="http://www.w3.org/2000/svg" viewBox="0 0 820 500" width="2460" height="1500">
  <!-- svg-source:excalidraw -->
  
  <defs>
    <style class="style-fonts">
      @font-face {
        font-family: "Virgil";
        src: url("https://excalidraw.com/Virgil.woff2");
      }
      @font-face {
        font-family: "Cascadia";
        src: url("https://excalidraw.com/Cascadia.woff2");
      }
      @font-face {
        font-family: "Assistant";
        src: url("https://excalidraw.com/Assistant-Regular.woff2");
      }
    </style>
    
  </defs>
  <rect x="0" y="0" width="820" height="500" fill="#ffffff"></rect><g stroke-linecap="round" transform="translate(10 10) rotate(0 100 50)"><path d="M25 0 C79.75 0.32, 131.25 0.21, 175 0 M25 0 C64.34 1.2, 105.25 0.89, 175 0 M175 0 C193.23 1.34, 198.62 6.39, 200 25 M175 0 C191.75 -1.65, 198.46 6.52, 200 25 M200 25 C200.93 42.19, 198.24 56.82, 200 75 M200 25 C200.13 37.81, 199.29 51.54, 200 75 M200 75 C201.72 92.53, 189.87 99.94, 175 100 M200 75 C201.22 90.4, 191.89 100.32, 175 100 M175 100 C123.48 100.55, 71.09 101.9, 25 100 M175 100 C132.36 100.11, 88.08 99.99, 25 100 M25 100 C8.97 98.29, 0.12 90.07, 0 75 M25 100 C7.46 102.16, -0.95 93.04, 0 75 M0 75 C1.71 57.85, 1.48 39.49, 0 25 M0 75 C0.68 56.66, 1.07 39.33, 0 25 M0 25 C-0.07 7.39, 10.15 -0.09, 25 0 M0 25 C0.73 9.89, 9.29 -1.5, 25 0" stroke="#69db7c" stroke-width="2" fill="none"></path></g><g stroke-linecap="round" transform="translate(610 10) rotate(0 100 50)"><path d="M25 0 C66.2 -1.41, 107.31 1.48, 175 0 M25 0 C84.11 -1.01, 144.82 0.27, 175 0 M175 0 C190.57 0.84, 201.49 9.21, 200 25 M175 0 C189.48 -2.15, 200.11 10.43, 200 25 M200 25 C200.92 39.81, 197.87 57, 200 75 M200 25 C199.77 38.2, 199.67 49.99, 200 75 M200 75 C198.07 90.71, 191.79 101.46, 175 100 M200 75 C201.88 93.75, 192.19 99.99, 175 100 M175 100 C132.38 101.05, 88.37 98.32, 25 100 M175 100 C140.1 100.76, 103.24 100.36, 25 100 M25 100 C7.63 98.67, 0.62 93.59, 0 75 M25 100 C6.71 102.07, 1.82 93.75, 0 75 M0 75 C2.09 56.19, -1.77 36.86, 0 25 M0 75 C-0.03 57.66, -0.39 38.54, 0 25 M0 25 C0.84 10.16, 8.25 -0.38, 25 0 M0 25 C-0.89 7.2, 8.11 -2.24, 25 0" stroke="#69db7c" stroke-width="2" fill="none"></path></g><g stroke-linecap="round" transform="translate(10 190) rotate(0 100 50)"><path d="M25 0 C58.52 0.27, 94.06 1.09, 175 0 M25 0 C62.42 0.85, 100.35 0.47, 175 0 M175 0 C193.15 0.19, 199.17 8.7, 200 25 M175 0 C192.61 -1.73, 200.37 10.32, 200 25 M200 25 C202.4 37.65, 200.81 51.3, 200 75 M200 25 C199.98 44.44, 199.56 62.88, 200 75 M200 75 C198.6 90.09, 191.46 101.12, 175 100 M200 75 C201.51 91.35, 193.65 100.98, 175 100 M175 100 C119.15 101.21, 61.76 99.05, 25 100 M175 100 C142.45 99.97, 108.05 100.18, 25 100 M25 100 C8.68 101.1, -0.58 92.6, 0 75 M25 100 C9.46 99.46, -1.9 93.89, 0 75 M0 75 C-2.14 62.88, -0.92 49.98, 0 25 M0 75 C0.37 54.61, -0.57 35.81, 0 25 M0 25 C0.62 7.96, 7.61 0.78, 25 0 M0 25 C1.26 6.91, 6.25 2.27, 25 0" stroke="#fa5252" stroke-width="2" fill="none"></path></g><g transform="translate(62.898869017148854 34.27609198671928) rotate(0 46.875 24)"><text x="46.875" y="0" font-family="Cascadia, Segoe UI Emoji" font-size="20px" fill="#1e1e1e" text-anchor="middle" style="white-space: pre;" direction="ltr" dominant-baseline="text-before-edge">Original</text><text x="46.875" y="24" font-family="Cascadia, Segoe UI Emoji" font-size="20px" fill="#1e1e1e" text-anchor="middle" style="white-space: pre;" direction="ltr" dominant-baseline="text-before-edge">Dataset</text></g><g stroke-linecap="round" transform="translate(310 10) rotate(0 100 50)"><path d="M25 0 C83.7 -2.72, 140.06 -1.24, 175 0 M25 0 C67.64 -1, 110.52 -1.91, 175 0 M175 0 C190.09 -1.69, 201.73 6.72, 200 25 M175 0 C189.57 0.1, 201.26 8.61, 200 25 M200 25 C202.09 37.49, 199.19 49.3, 200 75 M200 25 C200.45 42.41, 200.79 60.97, 200 75 M200 75 C201.29 90.43, 193.41 98.82, 175 100 M200 75 C199.84 90.99, 189.99 100.14, 175 100 M175 100 C127.03 102.78, 76.47 100.87, 25 100 M175 100 C136.03 100.71, 96.91 102, 25 100 M25 100 C9.21 98.1, -1.87 91.76, 0 75 M25 100 C10.43 100.05, -0.67 92.05, 0 75 M0 75 C1.85 56.4, 1.79 40.67, 0 25 M0 75 C-0.63 62.32, -0.74 51.63, 0 25 M0 25 C1.46 9.97, 10.14 0.45, 25 0 M0 25 C-0.01 8.14, 9.42 -1.14, 25 0" stroke="#69db7c" stroke-width="2" fill="none"></path></g><g transform="translate(345.747789196668 22.184694319001665) rotate(0 64.453125 48)"><text x="64.453125" y="0" font-family="Cascadia, Segoe UI Emoji" font-size="20px" fill="#1e1e1e" text-anchor="middle" style="white-space: pre;" direction="ltr" dominant-baseline="text-before-edge">Exploration</text><text x="64.453125" y="24" font-family="Cascadia, Segoe UI Emoji" font-size="20px" fill="#1e1e1e" text-anchor="middle" style="white-space: pre;" direction="ltr" dominant-baseline="text-before-edge">Resizing</text><text x="64.453125" y="48" font-family="Cascadia, Segoe UI Emoji" font-size="20px" fill="#1e1e1e" text-anchor="middle" style="white-space: pre;" direction="ltr" dominant-baseline="text-before-edge">Balancing</text><text x="64.453125" y="72" font-family="Cascadia, Segoe UI Emoji" font-size="20px" fill="#1e1e1e" text-anchor="middle" style="white-space: pre;" direction="ltr" dominant-baseline="text-before-edge"></text></g><g stroke-linecap="round"><g transform="translate(230 59.999762387159194) rotate(0 30 0.00003960214013432051)"><path d="M0 0 C10 0, 50 0, 60 0 M0 0 C10 0, 50 0, 60 0" stroke="#1e1e1e" stroke-width="2" fill="none"></path></g><g transform="translate(230 59.999762387159194) rotate(0 30 0.00003960214013432051)"><path d="M36.51 8.55 C42.31 6.44, 48.1 4.33, 60 0 M36.51 8.55 C41.98 6.56, 47.44 4.57, 60 0" stroke="#1e1e1e" stroke-width="2" fill="none"></path></g><g transform="translate(230 59.999762387159194) rotate(0 30 0.00003960214013432051)"><path d="M36.51 -8.55 C42.31 -6.44, 48.1 -4.33, 60 0 M36.51 -8.55 C41.98 -6.56, 47.44 -4.57, 60 0" stroke="#1e1e1e" stroke-width="2" fill="none"></path></g></g><mask></mask><g stroke-linecap="round"><g transform="translate(530 59.9999791396192) rotate(0 30 0.0000034767301144711382)"><path d="M0 0 C10 0, 50 0, 60 0 M0 0 C10 0, 50 0, 60 0" stroke="#1e1e1e" stroke-width="2" fill="none"></path></g><g transform="translate(530 59.9999791396192) rotate(0 30 0.0000034767301144711382)"><path d="M36.51 8.55 C41.98 6.56, 47.44 4.57, 60 0 M36.51 8.55 C42.77 6.27, 49.02 3.99, 60 0" stroke="#1e1e1e" stroke-width="2" fill="none"></path></g><g transform="translate(530 59.9999791396192) rotate(0 30 0.0000034767301144711382)"><path d="M36.51 -8.55 C41.98 -6.56, 47.44 -4.57, 60 0 M36.51 -8.55 C42.77 -6.27, 49.02 -3.99, 60 0" stroke="#1e1e1e" stroke-width="2" fill="none"></path></g></g><mask></mask><g transform="translate(39.72126860826722 223.80941116225472) rotate(0 70.3125 12)"><text x="70.3125" y="0" font-family="Cascadia, Segoe UI Emoji" font-size="20px" fill="#1e1e1e" text-anchor="middle" style="white-space: pre;" direction="ltr" dominant-baseline="text-before-edge">CNN Training</text></g><g transform="translate(657.190608508706 31.716804770199417) rotate(0 52.734375 24)"><text x="52.734375" y="0" font-family="Cascadia, Segoe UI Emoji" font-size="20px" fill="#1e1e1e" text-anchor="middle" style="white-space: pre;" direction="ltr" dominant-baseline="text-before-edge">Processed</text><text x="52.734375" y="24" font-family="Cascadia, Segoe UI Emoji" font-size="20px" fill="#1e1e1e" text-anchor="middle" style="white-space: pre;" direction="ltr" dominant-baseline="text-before-edge">Dataset</text></g><g stroke-linecap="round" transform="translate(310 190) rotate(0 100 50)"><path d="M25 0 C73.44 0.05, 121.81 1.52, 175 0 M25 0 C70.38 -0.14, 115.04 0.41, 175 0 M175 0 C192.54 -1.03, 198.52 9.21, 200 25 M175 0 C189.55 1.13, 202.16 10.26, 200 25 M200 25 C201.29 35.99, 199.04 50.6, 200 75 M200 25 C199.51 35.13, 199.94 47.2, 200 75 M200 75 C198.33 90.46, 192.73 101.63, 175 100 M200 75 C198.91 91.98, 191.78 102, 175 100 M175 100 C127.12 99.7, 81.3 98.16, 25 100 M175 100 C123.79 98.53, 72.52 98.22, 25 100 M25 100 C9.82 101.41, 0.03 91.54, 0 75 M25 100 C9.19 98.7, 0.1 89.49, 0 75 M0 75 C-1.26 56.88, 1.52 37.92, 0 25 M0 75 C-0.5 62.66, 0.34 52.1, 0 25 M0 25 C0.13 6.87, 7.34 -0.89, 25 0 M0 25 C-1.22 6.91, 10.6 -0.06, 25 0" stroke="#fa5252" stroke-width="2" fill="none"></path></g><g transform="translate(351.0144306983857 214.56501553883652) rotate(0 58.59375 24)"><text x="58.59375" y="0" font-family="Cascadia, Segoe UI Emoji" font-size="20px" fill="#1e1e1e" text-anchor="middle" style="white-space: pre;" direction="ltr" dominant-baseline="text-before-edge">Feature</text><text x="58.59375" y="24" font-family="Cascadia, Segoe UI Emoji" font-size="20px" fill="#1e1e1e" text-anchor="middle" style="white-space: pre;" direction="ltr" dominant-baseline="text-before-edge">Extraction</text></g><g stroke-linecap="round" transform="translate(610 190) rotate(0 100 50)"><path d="M25 0 C57.02 1.94, 93.97 -0.53, 175 0 M25 0 C72.99 -1.89, 122.98 -0.53, 175 0 M175 0 C191.61 0.33, 198.97 9.83, 200 25 M175 0 C190.13 1.17, 201.89 8.57, 200 25 M200 25 C198.19 38.67, 198.47 51.63, 200 75 M200 25 C199.21 39.71, 200.6 55.19, 200 75 M200 75 C201.43 93.42, 192.85 99.15, 175 100 M200 75 C202.04 93.95, 191.76 98.28, 175 100 M175 100 C118.7 100.78, 60.62 98.43, 25 100 M175 100 C142.4 101.23, 107.81 101.93, 25 100 M25 100 C9.41 100.38, 1.92 91.91, 0 75 M25 100 C9.26 101.57, 1.02 91.47, 0 75 M0 75 C-0.91 59.81, 0.47 42.51, 0 25 M0 75 C-0.88 61.07, -0.77 47.46, 0 25 M0 25 C0.32 7.58, 7.41 1.32, 25 0 M0 25 C0.84 10.06, 9.28 -1.55, 25 0" stroke="#fa5252" stroke-width="2" fill="none"></path></g><g transform="translate(650.866609189123 214.57617830594245) rotate(0 58.59375 24)"><text x="58.59375" y="0" font-family="Cascadia, Segoe UI Emoji" font-size="20px" fill="#1e1e1e" text-anchor="middle" style="white-space: pre;" direction="ltr" dominant-baseline="text-before-edge">Cross-</text><text x="58.59375" y="24" font-family="Cascadia, Segoe UI Emoji" font-size="20px" fill="#1e1e1e" text-anchor="middle" style="white-space: pre;" direction="ltr" dominant-baseline="text-before-edge">Validation</text></g><g stroke-linecap="round"><g transform="translate(230 240.00010560568103) rotate(0 30 -0.000017600946875973023)"><path d="M0 0 C10 0, 50 0, 60 0 M0 0 C10 0, 50 0, 60 0" stroke="#1e1e1e" stroke-width="2" fill="none"></path></g><g transform="translate(230 240.00010560568103) rotate(0 30 -0.000017600946875973023)"><path d="M36.51 8.55 C45.74 5.19, 54.98 1.83, 60 0 M36.51 8.55 C42.43 6.39, 48.35 4.24, 60 0" stroke="#1e1e1e" stroke-width="2" fill="none"></path></g><g transform="translate(230 240.00010560568103) rotate(0 30 -0.000017600946875973023)"><path d="M36.51 -8.55 C45.74 -5.19, 54.98 -1.83, 60 0 M36.51 -8.55 C42.43 -6.39, 48.35 -4.24, 60 0" stroke="#1e1e1e" stroke-width="2" fill="none"></path></g></g><mask></mask><g stroke-linecap="round"><g transform="translate(530 240.06936612907316) rotate(0 30 -0.011561021512193292)"><path d="M0 0 C10 0, 50 -0.02, 60 -0.02 M0 0 C10 0, 50 -0.02, 60 -0.02" stroke="#1e1e1e" stroke-width="2" fill="none"></path></g><g transform="translate(530 240.06936612907316) rotate(0 30 -0.011561021512193292)"><path d="M36.51 8.54 C44.49 5.63, 52.46 2.72, 60 -0.02 M36.51 8.54 C44.51 5.62, 52.5 2.71, 60 -0.02" stroke="#1e1e1e" stroke-width="2" fill="none"></path></g><g transform="translate(530 240.06936612907316) rotate(0 30 -0.011561021512193292)"><path d="M36.5 -8.56 C44.48 -5.66, 52.46 -2.76, 60 -0.02 M36.5 -8.56 C44.5 -5.66, 52.5 -2.75, 60 -0.02" stroke="#1e1e1e" stroke-width="2" fill="none"></path></g></g><mask></mask><g stroke-linecap="round"><g transform="translate(712.696629213483 130) rotate(0 -302.6966292134831 20)"><path d="M0 0 C-13.78 3.33, 4.42 16.67, -82.7 20 C-169.81 23.33, -435.58 16.67, -522.7 20 C-609.81 23.33, -591.61 36.67, -605.39 40 M0 0 C-13.78 3.33, 4.42 16.67, -82.7 20 C-169.81 23.33, -435.58 16.67, -522.7 20 C-609.81 23.33, -591.61 36.67, -605.39 40" stroke="#1e1e1e" stroke-width="2" fill="none"></path></g><g transform="translate(712.696629213483 130) rotate(0 -302.6966292134831 20)"><path d="M-590.92 19.62 C-595.81 26.51, -600.71 33.4, -605.39 40 M-590.92 19.62 C-596.19 27.05, -601.47 34.48, -605.39 40" stroke="#1e1e1e" stroke-width="2" fill="none"></path></g><g transform="translate(712.696629213483 130) rotate(0 -302.6966292134831 20)"><path d="M-581.2 33.69 C-589.38 35.83, -597.56 37.96, -605.39 40 M-581.2 33.69 C-590.02 35.99, -598.84 38.29, -605.39 40" stroke="#1e1e1e" stroke-width="2" fill="none"></path></g></g><mask></mask><g stroke-linecap="round"><g transform="translate(509.057077805257 150.69734703900338) rotate(0 -50.162114394804576 13.546634681913304)"><path d="M0 0 C-14.36 0.4, -69.44 -2.12, -86.16 2.39 C-102.88 6.91, -97.96 22.98, -100.32 27.09 M0 0 C-14.36 0.4, -69.44 -2.12, -86.16 2.39 C-102.88 6.91, -97.96 22.98, -100.32 27.09" stroke="#1e1e1e" stroke-width="2" fill="none"></path></g><g transform="translate(509.057077805257 150.69734703900338) rotate(0 -50.162114394804576 13.546634681913304)"><path d="M-103.17 13.14 C-102.06 18.58, -100.95 24.02, -100.32 27.09 M-103.17 13.14 C-102.41 16.84, -101.66 20.54, -100.32 27.09" stroke="#1e1e1e" stroke-width="2" fill="none"></path></g><g transform="translate(509.057077805257 150.69734703900338) rotate(0 -50.162114394804576 13.546634681913304)"><path d="M-93.53 14.58 C-96.18 19.46, -98.83 24.34, -100.32 27.09 M-93.53 14.58 C-95.33 17.9, -97.14 21.22, -100.32 27.09" stroke="#1e1e1e" stroke-width="2" fill="none"></path></g></g><mask></mask><g stroke-linecap="round" transform="translate(170 370) rotate(0 100 60)"><path d="M30 0 C64.29 0.63, 95.3 1.6, 170 0 M30 0 C77.19 1.65, 124.24 1.12, 170 0 M170 0 C190.31 0.36, 200.82 10.73, 200 30 M170 0 C192.01 0.99, 201.49 11.38, 200 30 M200 30 C201.97 45.85, 199.4 65.69, 200 90 M200 30 C199.87 42.53, 199.49 55.38, 200 90 M200 90 C198.63 110.07, 191.88 121.29, 170 120 M200 90 C198.18 110.27, 188.35 120.43, 170 120 M170 120 C134.97 120.31, 101 122.39, 30 120 M170 120 C128.9 120.53, 86.28 120.44, 30 120 M30 120 C10.7 118.34, 1.8 111.11, 0 90 M30 120 C8.49 121.92, 2.15 109.38, 0 90 M0 90 C-0.32 75.78, -0.02 62.22, 0 30 M0 90 C0.02 73.02, 0.27 54.04, 0 30 M0 30 C0.38 10.88, 11.74 -1.48, 30 0 M0 30 C1.95 10.48, 11.15 1.06, 30 0" stroke="#1971c2" stroke-width="2" fill="none"></path></g><g stroke-linecap="round" transform="translate(450 370) rotate(0 100 60)"><path d="M30 0 C71.52 -1.43, 110.24 0.36, 170 0 M30 0 C81.15 0.02, 132.39 0.21, 170 0 M170 0 C191.75 0.87, 201.3 11.2, 200 30 M170 0 C189.73 1.78, 200.13 11.74, 200 30 M200 30 C198.01 41.83, 201.01 58.28, 200 90 M200 30 C199.35 45.34, 200.97 61.27, 200 90 M200 90 C198.42 110.23, 188.57 120.38, 170 120 M200 90 C198.78 109.29, 191.14 119.45, 170 120 M170 120 C130.59 119.81, 93.06 122.12, 30 120 M170 120 C138.02 118.08, 106.23 119.47, 30 120 M30 120 C8.69 121.67, 1.87 109.46, 0 90 M30 120 C8.06 121.07, 0.06 109.95, 0 90 M0 90 C-0.21 76.6, 1.47 62.19, 0 30 M0 90 C-0.11 68.74, 0.57 45.86, 0 30 M0 30 C1.7 10.41, 11 0.92, 30 0 M0 30 C1.21 10.25, 8.28 -1.49, 30 0" stroke="#6741d9" stroke-width="2" fill="none"></path></g><g stroke-linecap="round"><g transform="translate(410 310) rotate(0 -70.68965517241384 20)"><path d="M0 0 C-3.33 3.33, 0 16.67, -20 20 C-40 23.33, -99.77 16.67, -120 20 C-140.23 23.33, -137.82 36.67, -141.38 40 M0 0 C-3.33 3.33, 0 16.67, -20 20 C-40 23.33, -99.77 16.67, -120 20 C-140.23 23.33, -137.82 36.67, -141.38 40" stroke="#1e1e1e" stroke-width="2" fill="none"></path></g><g transform="translate(410 310) rotate(0 -70.68965517241384 20)"><path d="M-140.2 25.41 C-140.59 30.26, -140.98 35.11, -141.38 40 M-140.2 25.41 C-140.48 28.93, -140.77 32.46, -141.38 40" stroke="#1e1e1e" stroke-width="2" fill="none"></path></g><g transform="translate(410 310) rotate(0 -70.68965517241384 20)"><path d="M-131.1 29.58 C-134.51 33.05, -137.93 36.51, -141.38 40 M-131.1 29.58 C-133.58 32.1, -136.06 34.62, -141.38 40" stroke="#1e1e1e" stroke-width="2" fill="none"></path></g></g><mask></mask><g stroke-linecap="round"><g transform="translate(410 310) rotate(0 70.68965517241372 20)"><path d="M0 0 C3.33 3.33, 0 16.67, 20 20 C40 23.33, 99.77 16.67, 120 20 C140.23 23.33, 137.82 36.67, 141.38 40 M0 0 C3.33 3.33, 0 16.67, 20 20 C40 23.33, 99.77 16.67, 120 20 C140.23 23.33, 137.82 36.67, 141.38 40" stroke="#1e1e1e" stroke-width="2" fill="none"></path></g><g transform="translate(410 310) rotate(0 70.68965517241372 20)"><path d="M131.1 29.58 C133.64 32.16, 136.18 34.73, 141.38 40 M131.1 29.58 C134.95 33.49, 138.8 37.39, 141.38 40" stroke="#1e1e1e" stroke-width="2" fill="none"></path></g><g transform="translate(410 310) rotate(0 70.68965517241372 20)"><path d="M140.2 25.41 C140.49 29.02, 140.78 32.62, 141.38 40 M140.2 25.41 C140.64 30.88, 141.08 36.35, 141.38 40" stroke="#1e1e1e" stroke-width="2" fill="none"></path></g></g><mask></mask><g transform="translate(210.63384132257977 395.9050192306696) rotate(0 58.59375 36)"><text x="58.59375" y="0" font-family="Cascadia, Segoe UI Emoji" font-size="20px" fill="#1e1e1e" text-anchor="middle" style="white-space: pre;" direction="ltr" dominant-baseline="text-before-edge">K-Nearest-</text><text x="58.59375" y="24" font-family="Cascadia, Segoe UI Emoji" font-size="20px" fill="#1e1e1e" text-anchor="middle" style="white-space: pre;" direction="ltr" dominant-baseline="text-before-edge">Neighbours</text><text x="58.59375" y="48" font-family="Cascadia, Segoe UI Emoji" font-size="20px" fill="#1e1e1e" text-anchor="middle" style="white-space: pre;" direction="ltr" dominant-baseline="text-before-edge">(Baseline)</text></g><g transform="translate(491.15048276096127 394.56969557951834) rotate(0 58.59375 36)"><text x="58.59375" y="0" font-family="Cascadia, Segoe UI Emoji" font-size="20px" fill="#1e1e1e" text-anchor="middle" style="white-space: pre;" direction="ltr" dominant-baseline="text-before-edge">Logistic</text><text x="58.59375" y="24" font-family="Cascadia, Segoe UI Emoji" font-size="20px" fill="#1e1e1e" text-anchor="middle" style="white-space: pre;" direction="ltr" dominant-baseline="text-before-edge">Regression</text><text x="58.59375" y="48" font-family="Cascadia, Segoe UI Emoji" font-size="20px" fill="#1e1e1e" text-anchor="middle" style="white-space: pre;" direction="ltr" dominant-baseline="text-before-edge">(Proposed)</text></g></svg>